<svg width="332" height="45" viewBox="0 0 332 45" fill="none" xmlns="http://www.w3.org/2000/svg">
<path d="M278.686 5.31736e-09C279.736 -3.82681e-05 280.777 0.206537 281.747 0.608398C282.718 1.01037 283.6 1.60002 284.343 2.34277L323.657 41.6572C324.4 42.4 325.282 42.9896 326.253 43.3916C327.223 43.7935 328.264 44 329.314 44H332V45H0V44H2.68555C3.73594 44 4.7766 43.7935 5.74707 43.3916C6.7176 42.9896 7.59992 42.4 8.34277 41.6572L47.6572 2.34277C48.4001 1.60002 49.2824 1.01037 50.2529 0.608398C51.2234 0.206537 52.2641 -3.82681e-05 53.3145 5.31736e-09H278.686Z" fill="#131316"/>
</svg>
