<?xml version="1.0" encoding="UTF-8" standalone="no"?>
<!DOCTYPE svg PUBLIC "-//W3C//DTD SVG 1.1//EN" "http://www.w3.org/Graphics/SVG/1.1/DTD/svg11.dtd">
<svg xmlns="http://www.w3.org/2000/svg" version="1.1" viewBox="0.00 0.00 300.00 76.00">
<path fill="#264796" d="
  M 62.85 76.00
  L 58.63 76.00
  Q 49.53 75.33 42.84 74.38
  C 28.86 72.39 11.82 65.10 4.25 52.73
  Q 1.03 47.47 0.00 39.08
  L 0.00 35.02
  Q 2.15 19.76 16.03 11.26
  Q 26.41 4.91 36.33 2.84
  C 57.02 -1.46 78.97 0.94 99.09 7.33
  A 0.29 0.29 0.0 0 0 99.43 6.91
  L 96.05 1.05
  A 0.17 0.17 0.0 0 1 96.31 0.83
  Q 106.09 8.63 117.04 15.01
  A 0.30 0.29 -23.1 0 1 116.82 15.55
  Q 93.88 10.38 71.29 11.46
  Q 56.14 12.19 43.35 17.99
  Q 33.21 22.59 29.35 32.50
  Q 24.96 43.77 33.70 51.56
  C 38.11 55.48 42.78 57.01 47.31 58.97
  C 55.89 62.68 66.40 63.35 76.76 63.05
  Q 98.19 62.42 119.32 58.24
  A 0.24 0.24 0.0 0 1 119.49 58.68
  Q 93.18 74.71 62.85 76.00
  Z"
/>
<path fill="#2c2b2a" d="
  M 191.06 20.45
  Q 191.10 31.84 191.01 36.24
  Q 190.99 37.27 189.54 38.38
  C 188.34 39.31 182.90 38.89 178.15 38.88
  A 0.65 0.65 0.0 0 0 177.50 39.53
  L 177.50 47.10
  A 0.66 0.65 -90.0 0 1 176.85 47.76
  L 172.88 47.76
  A 0.64 0.64 0.0 0 1 172.24 47.12
  L 172.24 39.44
  A 0.55 0.54 90.0 0 0 171.70 38.89
  L 159.24 38.89
  A 0.55 0.55 0.0 0 1 158.69 38.34
  L 158.69 20.37
  A 0.59 0.59 0.0 0 1 159.28 19.78
  L 171.69 19.78
  A 0.56 0.55 -0.0 0 0 172.25 19.23
  L 172.25 15.34
  A 0.60 0.59 90.0 0 1 172.84 14.74
  L 176.87 14.74
  A 0.62 0.62 0.0 0 1 177.49 15.36
  L 177.49 19.22
  A 0.56 0.56 0.0 0 0 178.05 19.78
  L 190.39 19.78
  A 0.67 0.67 0.0 0 1 191.06 20.45
  Z
  M 172.2739 25.3541
  A 0.38 0.38 0.0 0 0 171.8952 24.9728
  L 164.5952 24.9473
  A 0.38 0.38 0.0 0 0 164.2139 25.3260
  L 164.1861 33.2859
  A 0.38 0.38 0.0 0 0 164.5648 33.6672
  L 171.8648 33.6927
  A 0.38 0.38 0.0 0 0 172.2461 33.3140
  L 172.2739 25.3541
  Z
  M 185.57 25.38
  A 0.43 0.43 0.0 0 0 185.14 24.95
  L 177.92 24.95
  A 0.43 0.43 0.0 0 0 177.49 25.38
  L 177.49 33.26
  A 0.43 0.43 0.0 0 0 177.92 33.69
  L 185.14 33.69
  A 0.43 0.43 0.0 0 0 185.57 33.26
  L 185.57 25.38
  Z"
/>
<path fill="#2c2b2a" d="
  M 226.94 16.31
  L 226.94 46.17
  A 1.50 1.50 0.0 0 1 225.44 47.67
  L 196.56 47.67
  A 0.42 0.42 0.0 0 1 196.14 47.25
  L 196.14 16.28
  A 0.63 0.62 -0.0 0 1 196.77 15.66
  L 226.29 15.66
  A 0.65 0.65 0.0 0 1 226.94 16.31
  Z
  M 222.20 20.10
  A 0.31 0.31 0.0 0 0 221.89 19.79
  L 201.15 19.79
  A 0.31 0.31 0.0 0 0 200.84 20.10
  L 200.84 43.26
  A 0.31 0.31 0.0 0 0 201.15 43.57
  L 221.89 43.57
  A 0.31 0.31 0.0 0 0 222.20 43.26
  L 222.20 20.10
  Z"
/>
<path fill="#2c2b2a" d="
  M 285.67 15.66
  Q 286.65 15.66 287.60 15.74
  A 0.71 0.71 0.0 0 1 288.25 16.48
  Q 288.24 16.60 288.24 16.63
  A 0.74 0.74 0.0 0 0 288.98 17.33
  L 296.62 17.28
  A 0.54 0.54 0.0 0 1 297.16 17.82
  L 297.16 20.28
  A 0.55 0.55 0.0 0 1 296.61 20.83
  L 291.13 20.83
  A 0.67 0.67 0.0 0 0 290.46 21.50
  L 290.46 21.81
  A 0.78 0.78 0.0 0 0 291.24 22.59
  L 294.00 22.59
  A 0.61 0.61 0.0 0 1 294.60 23.09
  Q 294.76 24.09 295.78 24.22
  A 0.85 0.84 -86.6 0 1 296.52 25.06
  L 296.52 26.95
  A 0.77 0.76 -6.7 0 1 295.93 27.69
  Q 291.29 28.79 291.02 24.27
  A 0.28 0.27 -3.2 0 0 290.73 24.02
  A 0.19 0.19 0.0 0 0 290.57 24.22
  L 290.62 27.57
  A 0.76 0.75 -0.4 0 1 289.86 28.33
  L 287.21 28.33
  A 0.74 0.74 0.0 0 1 286.47 27.59
  L 286.49 21.31
  A 0.61 0.60 17.1 0 0 286.22 20.81
  Q 286.21 20.80 285.69 20.80
  Q 285.18 20.80 285.16 20.81
  A 0.61 0.60 -17.5 0 0 284.89 21.32
  L 284.96 27.60
  A 0.74 0.74 0.0 0 1 284.22 28.34
  L 281.57 28.36
  A 0.76 0.75 -0.0 0 1 280.81 27.60
  L 280.83 24.25
  A 0.19 0.19 0.0 0 0 280.67 24.05
  A 0.28 0.27 2.8 0 0 280.38 24.31
  Q 280.14 28.83 275.50 27.76
  A 0.77 0.76 6.4 0 1 274.90 27.02
  L 274.89 25.13
  A 0.85 0.84 86.2 0 1 275.62 24.29
  Q 276.64 24.15 276.80 23.15
  A 0.61 0.61 0.0 0 1 277.39 22.65
  L 280.15 22.63
  A 0.78 0.78 0.0 0 0 280.93 21.84
  L 280.93 21.53
  A 0.67 0.67 0.0 0 0 280.25 20.87
  L 274.77 20.90
  A 0.55 0.55 0.0 0 1 274.22 20.36
  L 274.20 17.90
  A 0.54 0.54 0.0 0 1 274.74 17.35
  L 282.38 17.35
  A 0.74 0.74 0.0 0 0 283.11 16.65
  Q 283.11 16.62 283.10 16.50
  A 0.71 0.71 0.0 0 1 283.75 15.75
  Q 284.70 15.66 285.67 15.66
  Z"
/>
<path fill="#2c2b2a" d="
  M 251.51 18.18
  Q 252.51 18.18 253.49 18.13
  A 0.72 0.71 82.0 0 0 254.15 17.25
  Q 254.11 17.10 254.10 17.00
  A 0.84 0.84 0.0 0 1 254.95 16.12
  L 258.22 16.15
  A 0.72 0.72 0.0 0 1 258.93 16.87
  L 258.93 17.61
  A 0.59 0.59 0.0 0 0 259.52 18.20
  L 261.10 18.20
  A 0.59 0.59 0.0 0 1 261.69 18.79
  L 261.69 21.19
  A 0.58 0.58 0.0 0 1 261.11 21.77
  L 259.47 21.77
  A 0.63 0.63 0.0 0 0 258.84 22.40
  L 258.84 23.23
  A 0.67 0.66 0.0 0 0 259.51 23.89
  L 261.78 23.89
  A 0.70 0.69 -90.0 0 1 262.47 24.59
  L 262.47 26.84
  A 0.67 0.66 0.0 0 1 261.80 27.50
  L 258.32 27.50
  A 0.49 0.49 0.0 0 0 257.90 28.23
  L 258.10 28.58
  A 0.98 0.97 -15.0 0 0 258.94 29.06
  L 261.51 29.06
  A 0.54 0.54 0.0 0 1 262.05 29.60
  L 262.05 31.68
  A 0.57 0.56 0.0 0 1 261.48 32.24
  L 256.34 32.24
  A 2.68 2.67 80.5 0 1 253.81 30.43
  L 253.01 28.07
  A 0.79 0.79 0.0 0 0 252.26 27.53
  Q 252.06 27.53 251.50 27.53
  Q 250.94 27.53 250.74 27.53
  A 0.79 0.79 0.0 0 0 249.98 28.06
  L 249.17 30.42
  A 2.68 2.67 -80.3 0 1 246.64 32.22
  L 241.50 32.21
  A 0.57 0.56 0.2 0 1 240.93 31.64
  L 240.94 29.56
  A 0.54 0.54 0.0 0 1 241.48 29.03
  L 244.05 29.03
  A 0.98 0.97 15.2 0 0 244.89 28.56
  L 245.09 28.21
  A 0.49 0.49 0.0 0 0 244.67 27.48
  L 241.19 27.47
  A 0.67 0.66 0.2 0 1 240.53 26.80
  L 240.53 24.55
  A 0.70 0.69 -89.8 0 1 241.23 23.86
  L 243.50 23.86
  A 0.67 0.66 0.2 0 0 244.17 23.21
  L 244.17 22.38
  A 0.63 0.63 0.0 0 0 243.54 21.74
  L 241.90 21.74
  A 0.58 0.58 0.0 0 1 241.33 21.16
  L 241.33 18.76
  A 0.59 0.59 0.0 0 1 241.93 18.17
  L 243.51 18.17
  A 0.59 0.59 0.0 0 0 244.10 17.59
  L 244.10 16.85
  A 0.72 0.72 0.0 0 1 244.81 16.13
  L 248.08 16.11
  A 0.84 0.84 0.0 0 1 248.93 16.99
  Q 248.92 17.09 248.88 17.24
  A 0.72 0.71 -81.8 0 0 249.53 18.12
  Q 250.52 18.18 251.51 18.18
  Z
  M 254.1942 22.2286
  A 0.44 0.44 0.0 0 0 253.7573 21.7855
  L 249.3174 21.7545
  A 0.44 0.44 0.0 0 0 248.8743 22.1914
  L 248.8658 23.4114
  A 0.44 0.44 0.0 0 0 249.3027 23.8545
  L 253.7426 23.8855
  A 0.44 0.44 0.0 0 0 254.1857 23.4486
  L 254.1942 22.2286
  Z"
/>
<path fill="#2c2b2a" d="
  M 265.84 17.03
  A 0.64 0.64 0.0 0 1 266.48 16.20
  L 269.70 16.31
  A 0.89 0.88 -7.7 0 1 270.51 16.93
  L 271.30 19.53
  A 0.82 0.82 0.0 0 0 272.06 20.11
  L 272.39 20.13
  A 0.55 0.54 -88.1 0 1 272.91 20.69
  L 272.80 23.97
  A 0.54 0.54 0.0 0 1 272.25 24.49
  L 269.64 24.41
  A 2.22 2.21 82.5 0 1 267.60 22.84
  L 265.84 17.03
  Z"
/>
<path fill="#2c2b2a" d="
  M 237.15 18.22
  L 237.85 21.46
  A 0.79 0.78 -5.9 0 0 238.62 22.08
  L 239.48 22.08
  A 0.63 0.63 0.0 0 1 240.11 22.71
  L 240.11 25.29
  A 0.72 0.72 0.0 0 1 239.39 26.01
  L 235.49 26.01
  A 2.13 2.13 0.0 0 1 233.41 24.33
  L 232.10 18.25
  A 0.61 0.61 0.0 0 1 232.70 17.51
  L 236.27 17.51
  A 0.90 0.89 -5.9 0 1 237.15 18.22
  Z"
/>
<path fill="#264796" d="
  M 62.50 40.18
  Q 57.82 40.19 57.49 40.21
  A 0.87 0.86 9.3 0 0 56.68 40.79
  L 52.90 51.83
  A 0.69 0.67 -80.3 0 1 52.26 52.29
  L 40.56 52.29
  A 0.36 0.35 -80.5 0 1 40.23 51.82
  L 51.18 19.92
  A 0.83 0.82 9.4 0 1 51.96 19.37
  L 63.45 19.37
  A 0.41 0.41 0.0 0 1 63.84 19.91
  L 60.09 30.82
  A 0.49 0.49 0.0 0 0 60.53 31.46
  Q 60.95 31.48 62.69 31.47
  Q 67.38 31.45 67.70 31.44
  A 0.87 0.86 9.3 0 0 68.51 30.86
  L 72.29 19.82
  A 0.69 0.67 -80.3 0 1 72.93 19.36
  L 84.63 19.36
  A 0.36 0.35 -80.5 0 1 84.96 19.83
  L 74.01 51.73
  A 0.83 0.82 9.4 0 1 73.23 52.28
  L 61.74 52.28
  A 0.41 0.41 0.0 0 1 61.35 51.74
  L 65.10 40.83
  A 0.49 0.49 0.0 0 0 64.66 40.19
  Q 64.24 40.17 62.50 40.18
  Z"
/>
<path fill="#264796" d="
  M 90.18 19.36
  L 118.98 19.36
  A 0.32 0.32 0.0 0 1 119.28 19.78
  L 116.52 27.82
  A 0.32 0.32 0.0 0 1 116.22 28.04
  L 99.85 28.04
  A 0.32 0.32 0.0 0 0 99.55 28.26
  L 98.59 31.04
  A 0.32 0.32 0.0 0 0 98.90 31.46
  L 114.84 31.46
  A 0.32 0.32 0.0 0 1 115.14 31.88
  L 112.37 39.95
  A 0.32 0.32 0.0 0 1 112.07 40.17
  L 95.68 40.17
  A 0.32 0.32 0.0 0 0 95.38 40.39
  L 94.42 43.17
  A 0.32 0.32 0.0 0 0 94.73 43.59
  L 110.68 43.59
  A 0.32 0.32 0.0 0 1 110.98 44.01
  L 108.21 52.06
  A 0.32 0.32 0.0 0 1 107.91 52.28
  L 79.10 52.28
  A 0.32 0.32 0.0 0 1 78.80 51.86
  L 89.88 19.58
  A 0.32 0.32 0.0 0 1 90.18 19.36
  Z"
/>
<path fill="#264796" d="
  M 113.60 51.62
  L 124.56 19.71
  A 0.50 0.50 0.0 0 1 125.04 19.36
  L 151.48 19.36
  A 0.34 0.33 9.3 0 1 151.80 19.80
  L 147.88 31.21
  A 0.76 0.75 9.0 0 1 147.16 31.73
  L 136.31 31.73
  A 0.44 0.43 -80.4 0 1 135.90 31.15
  L 136.77 28.59
  A 0.51 0.50 -80.4 0 0 136.30 27.92
  L 135.43 27.92
  A 1.47 1.46 -80.5 0 0 134.05 28.91
  L 129.22 42.98
  A 0.45 0.44 -75.0 0 0 129.55 43.56
  Q 131.67 44.03 132.09 42.48
  A 0.92 0.91 7.3 0 1 132.98 41.80
  L 143.74 41.80
  A 0.37 0.37 0.0 0 1 144.09 42.29
  L 140.86 51.70
  A 0.86 0.86 0.0 0 1 140.05 52.28
  L 114.07 52.28
  A 0.50 0.50 0.0 0 1 113.60 51.62
  Z"
/>
<path fill="#2c2b2a" d="
  M 213.85 36.53
  A 0.71 0.71 0.0 0 0 214.56 37.24
  L 214.92 37.24
  A 0.52 0.51 -9.2 0 0 215.42 36.56
  Q 214.93 35.09 214.83 34.63
  A 1.66 1.18 10.1 0 1 217.12 33.55
  Q 218.65 34.17 218.69 35.58
  Q 218.72 36.65 219.04 36.87
  Q 219.35 37.09 219.66 37.26
  A 1.04 1.02 13.9 0 1 220.22 38.17
  L 220.22 40.89
  A 0.47 0.47 0.0 0 1 219.75 41.36
  L 202.73 41.36
  A 0.50 0.49 90.0 0 1 202.24 40.86
  L 202.24 37.70
  A 0.53 0.52 -90.0 0 1 202.76 37.17
  L 208.32 37.17
  A 0.45 0.44 -0.0 0 0 208.77 36.73
  L 208.77 33.72
  A 0.49 0.49 0.0 0 0 208.28 33.23
  L 203.36 33.23
  A 0.42 0.42 0.0 0 1 202.94 32.81
  L 202.94 29.60
  A 0.55 0.55 0.0 0 1 203.49 29.05
  L 208.17 29.05
  A 0.62 0.61 -90.0 0 0 208.78 28.43
  L 208.78 26.05
  A 0.60 0.60 0.0 0 0 208.18 25.45
  L 202.75 25.45
  A 0.53 0.53 0.0 0 1 202.22 24.92
  L 202.22 21.87
  A 0.57 0.57 0.0 0 1 202.79 21.30
  L 219.75 21.30
  A 0.47 0.46 -90.0 0 1 220.21 21.77
  L 220.21 25.05
  A 0.41 0.40 0.0 0 1 219.80 25.45
  L 214.27 25.45
  A 0.40 0.40 0.0 0 0 213.87 25.85
  L 213.87 28.60
  A 0.45 0.44 0.0 0 0 214.32 29.04
  L 218.87 29.04
  A 0.47 0.46 -90.0 0 1 219.33 29.51
  L 219.33 32.79
  A 0.59 0.59 0.0 0 1 218.52 33.34
  Q 216.89 32.69 214.34 33.23
  A 0.63 0.62 -6.4 0 0 213.85 33.84
  L 213.85 36.53
  Z"
/>
<path fill="#2c2b2a" d="
  M 265.60 26.21
  A 0.65 0.65 0.0 0 1 266.22 25.35
  L 269.50 25.35
  A 0.90 0.90 0.0 0 1 270.35 25.95
  L 271.24 28.57
  A 0.83 0.83 0.0 0 0 272.03 29.14
  L 272.37 29.14
  A 0.56 0.55 90.0 0 1 272.92 29.70
  L 272.92 33.04
  A 0.55 0.55 0.0 0 1 272.37 33.59
  L 269.72 33.59
  A 2.26 2.25 80.6 0 1 267.59 32.06
  L 265.60 26.21
  Z"
/>
<path fill="#2c2b2a" d="
  M 232.69 27.73
  L 236.26 27.72
  A 0.90 0.90 0.0 0 1 237.15 28.44
  L 237.85 31.68
  A 0.79 0.78 -5.9 0 0 238.62 32.30
  L 239.49 32.30
  A 0.63 0.63 0.0 0 1 240.12 32.93
  L 240.12 35.52
  A 0.72 0.72 0.0 0 1 239.40 36.24
  L 235.49 36.24
  A 2.13 2.13 0.0 0 1 233.41 34.56
  L 232.09 28.47
  A 0.61 0.61 0.0 0 1 232.69 27.73
  Z"
/>
<path fill="#2c2b2a" d="
  M 280.40 37.73
  A 0.51 0.50 90.0 0 0 279.90 38.24
  L 279.90 38.57
  A 0.57 0.57 0.0 0 0 280.47 39.14
  L 295.86 39.14
  A 1.10 1.10 0.0 0 1 296.96 40.24
  L 296.96 45.84
  A 1.83 1.82 90.0 0 1 295.14 47.67
  L 277.65 47.67
  A 0.52 0.52 0.0 0 1 277.13 47.15
  L 277.13 44.87
  A 0.52 0.52 0.0 0 1 277.65 44.35
  L 291.02 44.35
  A 0.90 0.89 -0.0 0 0 291.92 43.46
  L 291.92 43.15
  A 0.48 0.48 0.0 0 0 291.44 42.67
  L 276.42 42.67
  A 1.62 1.61 0.0 0 1 274.80 41.06
  L 274.80 35.21
  A 0.80 0.80 0.0 0 1 275.60 34.41
  L 291.06 34.41
  A 0.81 0.81 0.0 0 0 291.87 33.60
  L 291.87 33.26
  A 0.53 0.53 0.0 0 0 291.34 32.73
  L 275.30 32.73
  A 0.53 0.53 0.0 0 1 274.77 32.20
  L 274.77 29.79
  A 0.56 0.56 0.0 0 1 275.33 29.23
  L 295.33 29.23
  A 0.92 0.91 0.0 0 1 296.25 30.14
  L 296.25 36.29
  A 1.45 1.44 0.0 0 1 294.80 37.73
  L 280.40 37.73
  Z"
/>
<path fill="#2c2b2a" d="
  M 262.05 47.58
  L 243.94 47.58
  A 2.27 2.27 0.0 0 1 241.67 45.31
  L 241.67 34.13
  A 0.58 0.58 0.0 0 1 242.25 33.55
  L 259.96 33.55
  A 1.36 1.36 0.0 0 1 261.32 34.91
  L 261.32 40.12
  A 2.17 2.16 -0.0 0 1 259.15 42.28
  L 246.86 42.28
  A 0.53 0.53 0.0 0 0 246.40 43.07
  L 246.54 43.31
  A 1.17 1.17 0.0 0 0 247.55 43.89
  L 262.04 43.89
  A 0.50 0.50 0.0 0 1 262.54 44.39
  L 262.54 47.08
  A 0.50 0.49 -90.0 0 1 262.05 47.58
  Z
  M 256.7699 37.9308
  A 0.80 0.80 0.0 0 0 255.9685 37.1322
  L 247.0686 37.1478
  A 0.80 0.80 0.0 0 0 246.2700 37.9492
  L 246.2701 38.0092
  A 0.80 0.80 0.0 0 0 247.0715 38.8078
  L 255.9714 38.7922
  A 0.80 0.80 0.0 0 0 256.7700 37.9908
  L 256.7699 37.9308
  Z"
/>
<path fill="#2c2b2a" d="
  M 273.40 36.61
  L 271.77 45.17
  A 2.90 2.88 -5.6 0 1 269.99 47.33
  Q 268.78 47.80 266.67 47.65
  A 0.93 0.92 2.0 0 1 265.80 46.73
  L 265.80 43.42
  A 0.57 0.57 0.0 0 1 266.50 42.86
  Q 267.56 43.10 267.73 41.76
  Q 268.11 38.88 268.50 36.62
  A 0.68 0.68 0.0 0 1 269.17 36.06
  L 272.95 36.06
  A 0.47 0.46 -84.8 0 1 273.40 36.61
  Z"
/>
<path fill="#2c2b2a" d="
  M 239.90 38.00
  L 238.48 45.51
  A 2.61 2.60 5.3 0 1 235.92 47.63
  L 232.03 47.63
  A 0.55 0.55 0.0 0 1 231.48 47.08
  L 231.48 43.97
  A 0.56 0.56 0.0 0 1 232.04 43.41
  L 233.30 43.41
  A 0.70 0.70 0.0 0 0 233.99 42.84
  L 234.86 38.21
  A 0.76 0.75 -84.4 0 1 235.60 37.60
  L 239.57 37.60
  A 0.34 0.33 5.6 0 1 239.90 38.00
  Z"
/>
<path fill="#2c2b2a" d="
  M 166.81 57.31
  A 0.68 0.68 0.0 0 1 167.70 56.77
  L 169.33 57.33
  A 0.73 0.72 19.4 0 1 169.78 58.26
  C 168.62 61.44 165.60 62.17 162.76 61.14
  C 158.56 59.61 158.49 51.06 163.06 49.83
  Q 167.83 48.56 169.64 52.43
  A 0.54 0.54 0.0 0 1 169.33 53.17
  L 167.63 53.74
  A 0.74 0.74 0.0 0 1 166.70 53.31
  Q 166.42 52.58 165.83 52.34
  A 2.03 2.00 -72.4 0 0 163.14 53.76
  Q 162.58 56.04 163.26 57.76
  A 1.97 1.83 -29.8 0 0 166.20 58.44
  Q 166.70 58.06 166.81 57.31
  Z"
/>
<path fill="#2c2b2a" d="
  M 275.4037 56.4644
  A 4.94 4.94 0.0 0 1 270.5332 61.4729
  L 269.5933 61.4860
  A 4.94 4.94 0.0 0 1 264.5848 56.6154
  L 264.5563 54.5756
  A 4.94 4.94 0.0 0 1 269.4268 49.5671
  L 270.3667 49.5540
  A 4.94 4.94 0.0 0 1 275.3752 54.4246
  L 275.4037 56.4644
  Z
  M 269.9582 52.1500
  A 3.39 2.31 -90.2 0 0 267.6600 55.5481
  A 3.39 2.31 -90.2 0 0 269.9818 58.9300
  A 3.39 2.31 -90.2 0 0 272.2800 55.5319
  A 3.39 2.31 -90.2 0 0 269.9582 52.1500
  Z"
/>
<path fill="#2c2b2a" d="
  M 176.61 56.62
  Q 176.01 56.62 175.42 56.67
  A 0.67 0.67 0.0 0 0 174.81 57.33
  L 174.80 60.85
  A 0.48 0.47 0.1 0 1 174.32 61.32
  L 172.05 61.31
  A 0.51 0.51 0.0 0 1 171.54 60.80
  L 171.56 50.19
  A 0.50 0.50 0.0 0 1 172.07 49.69
  L 174.30 49.70
  A 0.50 0.50 0.0 0 1 174.80 50.20
  L 174.80 53.02
  A 0.71 0.71 0.0 0 0 175.43 53.72
  Q 176.01 53.78 176.59 53.78
  Q 177.19 53.79 177.77 53.73
  A 0.71 0.71 0.0 0 0 178.41 53.02
  L 178.41 50.21
  A 0.50 0.50 0.0 0 1 178.91 49.71
  L 181.15 49.71
  A 0.50 0.50 0.0 0 1 181.65 50.21
  L 181.64 60.82
  A 0.51 0.51 0.0 0 1 181.13 61.33
  L 178.86 61.33
  A 0.48 0.47 0.0 0 1 178.38 60.86
  L 178.38 57.34
  A 0.67 0.67 0.0 0 0 177.77 56.67
  Q 177.18 56.62 176.61 56.62
  Z"
/>
<rect fill="#2c2b2a" x="183.93" y="49.70" width="3.28" height="11.62" rx="0.35"/>
<path fill="#2c2b2a" d="
  M 196.97 49.71
  L 199.33 49.71
  A 0.34 0.34 0.0 0 1 199.67 50.05
  L 199.67 60.97
  A 0.34 0.34 0.0 0 1 199.33 61.31
  L 196.73 61.31
  A 0.34 0.34 0.0 0 1 196.43 61.14
  L 193.27 55.67
  A 0.34 0.34 0.0 0 0 192.64 55.84
  L 192.64 60.98
  A 0.34 0.34 0.0 0 1 192.30 61.32
  L 189.94 61.32
  A 0.34 0.34 0.0 0 1 189.60 60.98
  L 189.60 50.05
  A 0.34 0.34 0.0 0 1 189.94 49.71
  L 192.53 49.71
  A 0.34 0.34 0.0 0 1 192.83 49.88
  L 196.00 55.36
  A 0.34 0.34 0.0 0 0 196.63 55.19
  L 196.63 50.05
  A 0.34 0.34 0.0 0 1 196.97 49.71
  Z"
/>
<path fill="#2c2b2a" d="
  M 206.42 59.41
  Q 205.81 59.41 205.21 59.43
  A 0.98 0.98 0.0 0 0 204.35 60.02
  Q 204.28 60.18 204.26 60.67
  A 0.69 0.68 -89.2 0 1 203.58 61.34
  L 201.25 61.34
  A 0.41 0.41 0.0 0 1 200.86 60.80
  L 204.39 50.39
  A 0.94 0.94 0.0 0 1 205.16 49.76
  Q 205.76 49.69 206.40 49.69
  Q 207.05 49.69 207.65 49.76
  A 0.94 0.94 0.0 0 1 208.42 50.39
  L 211.98 60.78
  A 0.41 0.41 0.0 0 1 211.59 61.33
  L 209.26 61.33
  A 0.69 0.68 89.0 0 1 208.58 60.66
  Q 208.56 60.17 208.49 60.01
  A 0.98 0.98 0.0 0 0 207.63 59.43
  Q 207.02 59.41 206.42 59.41
  Z
  M 206.44 56.90
  Q 207.21 56.86 207.32 56.73
  Q 207.54 56.48 207.37 55.93
  Q 206.53 53.30 206.23 53.32
  Q 205.92 53.34 205.40 56.05
  Q 205.29 56.61 205.53 56.83
  Q 205.67 56.95 206.44 56.90
  Z"
/>
<path fill="#2c2b2a" d="
  M 223.21 53.78
  Q 223.80 53.78 224.37 53.73
  A 0.71 0.71 0.0 0 0 225.01 53.02
  L 225.01 50.20
  A 0.50 0.50 0.0 0 1 225.51 49.70
  L 227.75 49.70
  A 0.50 0.50 0.0 0 1 228.25 50.20
  L 228.25 60.82
  A 0.51 0.51 0.0 0 1 227.74 61.33
  L 225.47 61.33
  A 0.48 0.47 0.0 0 1 224.99 60.86
  L 224.99 57.34
  A 0.67 0.67 0.0 0 0 224.37 56.67
  Q 223.79 56.62 223.19 56.62
  Q 222.61 56.62 222.03 56.67
  A 0.67 0.67 0.0 0 0 221.41 57.34
  L 221.40 60.86
  A 0.48 0.47 0.1 0 1 220.92 61.33
  L 218.65 61.32
  A 0.51 0.51 0.0 0 1 218.14 60.81
  L 218.16 50.19
  A 0.50 0.50 0.0 0 1 218.66 49.69
  L 220.90 49.70
  A 0.50 0.50 0.0 0 1 221.40 50.20
  L 221.40 53.02
  A 0.71 0.71 0.0 0 0 222.03 53.72
  Q 222.61 53.78 223.21 53.78
  Z"
/>
<path fill="#2c2b2a" d="
  M 235.12 49.70
  Q 235.78 49.70 236.37 49.77
  A 0.94 0.94 0.0 0 1 237.14 50.40
  L 240.67 60.79
  A 0.41 0.41 0.0 0 1 240.28 61.33
  L 237.96 61.33
  A 0.69 0.68 89.1 0 1 237.28 60.66
  Q 237.26 60.17 237.19 60.01
  A 0.98 0.98 0.0 0 0 236.33 59.43
  Q 235.73 59.40 235.12 59.40
  Q 234.52 59.40 233.91 59.43
  A 0.98 0.98 0.0 0 0 233.05 60.01
  Q 232.98 60.17 232.96 60.66
  A 0.69 0.68 -89.0 0 1 232.28 61.33
  L 229.96 61.32
  A 0.41 0.41 0.0 0 1 229.57 60.78
  L 233.12 50.40
  A 0.94 0.94 0.0 0 1 233.88 49.77
  Q 234.48 49.70 235.12 49.70
  Z
  M 235.14 56.94
  Q 235.61 56.92 235.69 56.90
  A 0.56 0.55 76.6 0 0 236.11 56.23
  Q 235.37 53.20 235.04 53.21
  Q 234.71 53.22 234.13 56.28
  A 0.56 0.55 -79.6 0 0 234.58 56.93
  Q 234.67 56.95 235.14 56.94
  Z"
/>
<path fill="#2c2b2a" d="
  M 249.60 55.77
  A 0.37 0.37 0.0 0 0 249.49 56.41
  Q 250.60 57.28 252.11 60.76
  A 0.41 0.40 -11.7 0 1 251.73 61.32
  L 249.34 61.34
  A 0.79 0.77 -14.5 0 1 248.65 60.95
  L 246.31 56.94
  A 0.58 0.58 0.0 0 0 245.23 57.24
  L 245.25 60.90
  A 0.43 0.43 0.0 0 1 244.82 61.34
  L 242.47 61.35
  A 0.49 0.48 89.7 0 1 241.99 60.86
  L 241.94 50.23
  A 0.49 0.48 89.1 0 1 242.41 49.73
  C 244.80 49.67 246.17 49.73 248.05 49.73
  C 251.83 49.75 252.93 54.65 249.60 55.77
  Z
  M 245.16 52.59
  L 245.23 54.03
  A 0.44 0.44 0.0 0 0 245.69 54.44
  L 246.71 54.39
  A 1.66 1.07 -2.8 0 0 248.31 53.24
  L 248.30 53.06
  A 1.66 1.07 -2.8 0 0 246.59 52.08
  L 245.57 52.13
  A 0.44 0.44 0.0 0 0 245.16 52.59
  Z"
/>
<path fill="#2c2b2a" d="
  M 261.57 55.47
  Q 261.76 55.62 262.24 55.79
  Q 262.51 55.89 262.71 56.31
  Q 264.19 59.47 261.11 61.13
  A 1.18 1.13 29.5 0 1 260.64 61.25
  L 254.08 61.35
  A 0.64 0.63 89.1 0 1 253.43 60.71
  L 253.43 50.33
  A 0.62 0.62 0.0 0 1 254.05 49.71
  L 260.31 49.71
  A 1.74 1.73 -21.8 0 1 261.56 50.24
  Q 263.95 52.75 261.56 54.70
  A 0.49 0.49 0.0 0 0 261.57 55.47
  Z
  M 259.4565 52.9027
  A 0.81 0.81 0.0 0 0 258.6366 52.1026
  L 257.4167 52.1175
  A 0.81 0.81 0.0 0 0 256.6167 52.9374
  L 256.6235 53.4973
  A 0.81 0.81 0.0 0 0 257.4434 54.2974
  L 258.6633 54.2825
  A 0.81 0.81 0.0 0 0 259.4633 53.4626
  L 259.4565 52.9027
  Z
  M 256.68 56.89
  L 256.66 58.37
  A 0.45 0.45 0.0 0 0 257.11 58.82
  L 258.08 58.83
  A 1.90 0.99 0.4 0 0 259.99 57.85
  L 259.99 57.45
  A 1.90 0.99 0.4 0 0 258.10 56.45
  L 257.13 56.44
  A 0.45 0.45 0.0 0 0 256.68 56.89
  Z"
/>
<path fill="#2c2b2a" d="
  M 282.28 58.80
  Q 283.85 58.80 284.01 57.49
  Q 284.25 55.55 284.05 50.25
  A 0.54 0.54 0.0 0 1 284.59 49.69
  L 286.81 49.69
  A 0.55 0.55 0.0 0 1 287.36 50.24
  C 287.32 55.68 288.58 61.53 282.29 61.53
  C 275.99 61.54 277.24 55.70 277.19 50.25
  A 0.55 0.55 0.0 0 1 277.74 49.70
  L 279.96 49.69
  A 0.54 0.54 0.0 0 1 280.50 50.25
  Q 280.31 55.55 280.55 57.49
  Q 280.72 58.80 282.28 58.80
  Z"
/>
<path fill="#2c2b2a" d="
  M 297.07 56.42
  Q 298.17 57.29 299.66 60.77
  A 0.41 0.40 -11.4 0 1 299.28 61.33
  L 296.89 61.33
  A 0.79 0.76 -14.3 0 1 296.21 60.94
  L 293.89 56.93
  A 0.58 0.58 0.0 0 0 292.81 57.22
  L 292.81 60.88
  A 0.43 0.43 0.0 0 1 292.38 61.31
  L 290.04 61.31
  A 0.49 0.48 -90.0 0 1 289.56 60.82
  L 289.56 50.21
  A 0.49 0.48 89.4 0 1 290.03 49.72
  C 292.42 49.67 293.78 49.73 295.66 49.74
  C 299.43 49.78 300.51 54.68 297.18 55.78
  A 0.37 0.37 0.0 0 0 297.07 56.42
  Z
  M 292.75 52.55
  L 292.79 54.01
  A 0.44 0.44 0.0 0 0 293.24 54.44
  L 294.21 54.41
  A 1.69 1.08 -1.6 0 0 295.87 53.29
  L 295.87 53.11
  A 1.69 1.08 -1.6 0 0 294.15 52.07
  L 293.18 52.10
  A 0.44 0.44 0.0 0 0 292.75 52.55
  Z"
/>
</svg>
