<svg width="438" height="165" viewBox="0 0 438 165" fill="none" xmlns="http://www.w3.org/2000/svg">
<g clip-path="url(#clip0_209_3768)">
<path d="M5.17692 53.5159C4.27376 53.533 3.38547 53.2844 2.62233 52.8011C1.42576 52.1012 0.551829 50.9594 0.188648 49.6216C-0.174533 48.2838 0.00207018 46.8569 0.680448 45.6479L25.5148 2.62182C26.2059 1.41574 27.3477 0.533583 28.6892 0.169409C30.0307 -0.194764 31.4619 -0.0111214 32.668 0.679939C33.8741 1.371 34.7562 2.51287 35.1204 3.85435C35.4846 5.19583 35.3009 6.62704 34.6099 7.83312L9.67339 50.9614C9.2192 51.7489 8.56297 52.4009 7.7725 52.85C6.98202 53.2991 6.08597 53.529 5.17692 53.5159Z" fill="#00B4EB"/>
<path d="M5.17692 95.1107C4.27376 95.1277 3.38547 94.8792 2.62233 94.3958C1.42576 93.6959 0.551829 92.5542 0.188648 91.2164C-0.174533 89.8785 0.00207018 88.4516 0.680448 87.2427L25.5148 44.2165C26.2059 43.0105 27.3477 42.1283 28.6892 41.7641C30.0307 41.4 31.4619 41.5836 32.668 42.2747C33.8741 42.9657 34.7562 44.1076 35.1204 45.4491C35.4846 46.7906 35.3009 48.2218 34.6099 49.4278L9.67339 92.454C9.24167 93.2683 8.59322 93.9474 7.7997 94.4162C7.00618 94.8851 6.09848 95.1254 5.17692 95.1107Z" fill="#0056A2"/>
<path d="M46.2595 95.1107C45.3258 95.1152 44.4082 94.8682 43.6028 94.3958C42.4062 93.6959 41.5323 92.5542 41.1691 91.2163C40.8059 89.8785 40.9825 88.4516 41.6609 87.2427L66.4953 44.2165C66.8374 43.6193 67.2939 43.0954 67.8386 42.6746C68.3832 42.2538 69.0054 41.9444 69.6697 41.7641C70.3339 41.5838 71.0272 41.5361 71.7098 41.6237C72.3925 41.7113 73.0513 41.9325 73.6484 42.2747C74.2456 42.6168 74.7696 43.0733 75.1904 43.6179C75.6111 44.1626 75.9205 44.7848 76.1009 45.4491C76.2812 46.1133 76.3289 46.8065 76.2413 47.4892C76.1537 48.1719 75.9325 48.8306 75.5903 49.4278L50.756 92.4539C50.3243 93.2683 49.6758 93.9474 48.8823 94.4162C48.0888 94.8851 47.1811 95.1254 46.2595 95.1107Z" fill="#1BB80F"/>
<path d="M44.6215 62.405C47.4996 62.405 49.8327 60.0718 49.8327 57.1937C49.8327 54.3156 47.4996 51.9824 44.6215 51.9824C41.7433 51.9824 39.4102 54.3156 39.4102 57.1937C39.4102 60.0718 41.7433 62.405 44.6215 62.405Z" fill="#1BB80F"/>
<path d="M94.394 108.293C89.5911 106.862 85.401 105.636 85.401 102.161C85.401 98.7879 89.6932 98.4815 91.533 98.4815C96.1715 98.7817 100.664 100.221 104.614 102.672L105.125 102.978L108.913 94.802L108.606 94.5977C103.742 91.5114 98.1119 89.8478 92.3516 89.7949C82.0295 89.7949 75.2848 94.9008 75.2848 102.971C75.2848 112.271 83.3554 114.621 89.8991 116.461C94.8041 117.892 99.0963 119.118 99.0963 122.695C99.0963 125.454 96.5417 127.089 91.9431 127.089C86.3509 126.706 81.0542 124.436 76.9203 120.651L76.4097 120.242L72.4238 128.313L72.7302 128.517C78.035 133.128 84.8079 135.7 91.8361 135.773C102.465 135.773 109.311 130.459 109.311 122.181C109.11 112.689 101.037 110.235 94.394 108.293Z" fill="#0056A2"/>
<path d="M124.644 126.79V90.1016H115.242V135.374H143.754V126.79H124.644Z" fill="#0056A2"/>
<path d="M173.601 90.1016H140.387V98.5839H154.182V135.374H163.79V98.5839H177.894L173.601 90.1016Z" fill="#0056A2"/>
<path d="M241.253 89.8975C227.559 89.8975 217.135 99.709 217.135 112.792C217.135 125.668 227.763 135.786 241.253 135.786C254.742 135.786 265.371 125.668 265.371 112.792C265.372 99.709 255.05 89.8975 241.253 89.8975ZM241.355 127.198C239.447 127.234 237.551 126.889 235.778 126.183C234.005 125.477 232.39 124.425 231.028 123.088C229.667 121.752 228.585 120.157 227.846 118.397C227.108 116.638 226.728 114.748 226.728 112.84C226.728 110.932 227.108 109.043 227.846 107.283C228.585 105.523 229.667 103.929 231.028 102.592C232.39 101.255 234.005 100.203 235.778 99.4974C237.551 98.7918 239.447 98.4465 241.355 98.4819C245.136 98.5224 248.749 100.053 251.409 102.741C254.068 105.43 255.56 109.059 255.56 112.84C255.56 116.622 254.068 120.251 251.409 122.939C248.749 125.627 245.136 127.158 241.355 127.198Z" fill="#1BB80F"/>
<path d="M300.425 111.461C302.366 110.7 304.025 109.36 305.177 107.623C306.329 105.885 306.918 103.835 306.863 101.752C306.863 94.5985 300.834 90.2041 291.126 90.2041H270.992V135.477H291.745C302.169 135.477 308.608 130.572 308.608 122.804C308.694 120.274 307.937 117.787 306.456 115.734C304.975 113.681 302.853 112.178 300.425 111.461ZM290.614 108.19H280.291V98.3801H290.818C294.804 98.3801 297.154 100.118 297.154 103.183C297.154 106.345 294.804 108.19 290.614 108.19ZM280.402 116.366H290.922C295.827 116.366 298.791 118.308 298.791 121.679C298.819 122.463 298.646 123.241 298.288 123.939C297.931 124.636 297.4 125.231 296.747 125.665C294.967 126.753 292.903 127.287 290.818 127.199H280.291V116.366H280.402Z" fill="#1BB80F"/>
<path d="M324.339 90.1016H314.836V135.374H324.339V90.1016Z" fill="#1BB80F"/>
<path d="M328.324 90.1016V98.5839H342.12V135.374H351.624V98.5839H365.419V90.1016H328.324Z" fill="#1BB80F"/>
<path d="M379.009 126.996V116.878H400.471V108.498H379.009V98.4818H402.925V90.1016H369.506V135.374H403.742V126.996H379.009Z" fill="#1BB80F"/>
<path d="M418.867 126.79V90.1016H409.363V135.374H437.978V126.79H418.867Z" fill="#1BB80F"/>
<path d="M201.09 90.1016L187.498 117.899L180.745 104.512H171.555L184.431 130.878H190.563L202.827 105.431L202.93 135.374H211.616V90.1016H201.09Z" fill="#1BB80F"/>
<path d="M166.441 149.682V151.823H161.842V164.087H159.39V151.823H154.791V149.682H166.441Z" fill="#0056A2"/>
<path d="M181.056 157.552V164.092H178.705V158.163C178.733 157.807 178.684 157.449 178.56 157.114C178.437 156.779 178.242 156.475 177.989 156.222C177.737 155.97 177.433 155.775 177.097 155.651C176.762 155.528 176.405 155.478 176.049 155.506C175.607 155.509 175.171 155.603 174.767 155.783C174.364 155.963 174.002 156.224 173.704 156.551C173.407 156.877 173.18 157.262 173.038 157.68C172.897 158.098 172.843 158.541 172.881 158.981V164.087H170.529V149.58H172.88V155.509C173.262 154.772 173.855 154.165 174.582 153.765C175.31 153.365 176.14 153.189 176.968 153.261C177.527 153.243 178.084 153.343 178.602 153.555C179.119 153.767 179.587 154.086 179.973 154.491C180.359 154.896 180.655 155.378 180.841 155.906C181.028 156.433 181.101 156.994 181.056 157.552Z" fill="#0056A2"/>
<path d="M197.001 159.494H188.723C188.855 160.284 189.27 161 189.891 161.508C190.511 162.015 191.295 162.28 192.096 162.252C192.674 162.273 193.249 162.164 193.779 161.934C194.309 161.704 194.781 161.359 195.161 160.923L196.388 162.252C195.8 162.844 195.099 163.312 194.327 163.628C193.554 163.944 192.726 164.102 191.892 164.092C191.154 164.11 190.42 163.98 189.732 163.712C189.044 163.443 188.417 163.04 187.886 162.527C187.356 162.013 186.932 161.399 186.641 160.721C186.35 160.042 186.196 159.313 186.19 158.575C186.183 157.836 186.323 157.104 186.602 156.42C186.881 155.737 187.292 155.115 187.814 154.592C188.335 154.069 188.954 153.655 189.637 153.373C190.32 153.092 191.051 152.949 191.79 152.953C195.672 153.055 197.205 155.61 197.001 159.494ZM194.86 157.858C194.863 157.464 194.784 157.074 194.628 156.712C194.473 156.35 194.243 156.024 193.955 155.755C193.667 155.486 193.326 155.28 192.955 155.149C192.583 155.019 192.188 154.967 191.795 154.997C190.991 154.979 190.209 155.263 189.604 155.793C188.998 156.322 188.613 157.059 188.524 157.858H194.86Z" fill="#0056A2"/>
<path d="M218.357 151.824C217.686 151.824 217.022 151.956 216.403 152.213C215.783 152.469 215.221 152.845 214.746 153.32C214.272 153.794 213.896 154.357 213.64 154.976C213.383 155.596 213.251 156.259 213.251 156.93C213.251 157.601 213.383 158.264 213.64 158.884C213.896 159.503 214.272 160.066 214.746 160.54C215.221 161.015 215.783 161.391 216.403 161.647C217.022 161.904 217.686 162.036 218.357 162.036C219.104 162.032 219.843 161.876 220.529 161.578C221.214 161.279 221.831 160.844 222.343 160.298L223.774 161.934C222.27 163.407 220.258 164.248 218.153 164.284C217.177 164.302 216.209 164.124 215.303 163.761C214.398 163.399 213.574 162.859 212.881 162.173C212.187 161.487 211.638 160.669 211.265 159.768C210.893 158.867 210.704 157.9 210.711 156.925C210.718 155.949 210.92 154.985 211.305 154.089C211.69 153.193 212.251 152.383 212.954 151.707C213.657 151.031 214.488 150.503 215.398 150.153C216.309 149.803 217.28 149.639 218.255 149.67C220.317 149.671 222.298 150.477 223.774 151.918L222.343 153.656C221.857 153.072 221.247 152.605 220.557 152.288C219.868 151.971 219.116 151.813 218.357 151.824Z" fill="#0056A2"/>
<path d="M239.411 158.575C239.452 159.715 239.152 160.842 238.548 161.811C237.944 162.78 237.065 163.546 236.022 164.011C234.98 164.477 233.822 164.62 232.698 164.423C231.574 164.226 230.534 163.697 229.712 162.905C228.891 162.112 228.325 161.092 228.087 159.976C227.849 158.86 227.95 157.697 228.377 156.639C228.804 155.58 229.538 154.674 230.484 154.035C231.43 153.397 232.546 153.055 233.687 153.055C234.434 153.009 235.182 153.118 235.883 153.377C236.585 153.635 237.226 154.036 237.764 154.555C238.302 155.074 238.727 155.7 239.01 156.392C239.294 157.084 239.43 157.827 239.411 158.575ZM230.316 158.677C230.273 159.14 230.329 159.607 230.48 160.047C230.632 160.487 230.875 160.889 231.194 161.227C231.513 161.566 231.901 161.833 232.331 162.01C232.761 162.187 233.224 162.27 233.689 162.254C234.405 162.296 235.117 162.122 235.733 161.754C236.35 161.387 236.841 160.843 237.144 160.193C237.448 159.543 237.549 158.816 237.435 158.108C237.321 157.4 236.997 156.742 236.505 156.22C236.012 155.698 235.375 155.336 234.675 155.181C233.974 155.025 233.243 155.084 232.576 155.348C231.91 155.613 231.338 156.072 230.935 156.665C230.532 157.259 230.316 157.959 230.316 158.677Z" fill="#0056A2"/>
<path d="M255.452 157.244V164.091H253.098V157.959C253.126 157.603 253.076 157.245 252.953 156.91C252.829 156.575 252.634 156.271 252.382 156.019C252.129 155.766 251.825 155.571 251.49 155.448C251.155 155.324 250.797 155.275 250.441 155.303C250.044 155.292 249.65 155.362 249.28 155.506C248.91 155.65 248.572 155.866 248.287 156.142C248.002 156.418 247.774 156.748 247.618 157.113C247.461 157.478 247.379 157.87 247.376 158.267V164.093H245.027V153.16H247.378V155.301C247.767 154.577 248.365 153.985 249.094 153.604C249.822 153.222 250.648 153.068 251.466 153.16C252.01 153.112 252.558 153.185 253.07 153.375C253.582 153.564 254.046 153.866 254.428 154.257C254.809 154.648 255.099 155.119 255.276 155.635C255.453 156.152 255.513 156.702 255.452 157.244Z" fill="#0056A2"/>
<path d="M272.217 157.244V164.091H269.864V157.959C269.892 157.603 269.842 157.245 269.718 156.91C269.595 156.575 269.4 156.271 269.148 156.018C268.895 155.765 268.591 155.571 268.256 155.447C267.921 155.324 267.563 155.274 267.207 155.302C266.81 155.292 266.415 155.361 266.045 155.505C265.675 155.649 265.338 155.866 265.053 156.142C264.767 156.418 264.54 156.748 264.383 157.113C264.227 157.477 264.145 157.87 264.142 158.267V164.092H261.793V153.159H264.143V155.3C264.534 154.577 265.132 153.986 265.86 153.605C266.588 153.223 267.414 153.068 268.231 153.159C268.775 153.111 269.323 153.184 269.836 153.374C270.348 153.564 270.812 153.865 271.193 154.256C271.575 154.647 271.864 155.118 272.042 155.635C272.219 156.151 272.279 156.701 272.217 157.244Z" fill="#0056A2"/>
<path d="M288.157 159.494H279.879C280.011 160.284 280.426 161 281.046 161.508C281.667 162.016 282.451 162.28 283.252 162.252C283.83 162.273 284.405 162.164 284.935 161.934C285.465 161.704 285.938 161.359 286.318 160.923L287.545 162.252C286.956 162.844 286.255 163.312 285.483 163.628C284.71 163.944 283.883 164.102 283.048 164.092C282.31 164.11 281.576 163.98 280.888 163.712C280.2 163.443 279.573 163.04 279.043 162.527C278.512 162.013 278.089 161.399 277.797 160.721C277.506 160.042 277.353 159.313 277.346 158.575C277.339 157.836 277.479 157.104 277.758 156.42C278.037 155.737 278.449 155.115 278.97 154.592C279.491 154.069 280.111 153.655 280.793 153.373C281.476 153.092 282.208 152.949 282.946 152.953C286.93 153.055 288.462 155.61 288.157 159.494ZM286.113 157.858C286.116 157.464 286.037 157.074 285.882 156.712C285.726 156.35 285.497 156.024 285.209 155.755C284.921 155.486 284.58 155.28 284.208 155.149C283.836 155.019 283.441 154.967 283.048 154.997C282.251 154.967 281.474 155.249 280.883 155.783C280.291 156.318 279.931 157.062 279.881 157.858H286.113Z" fill="#0056A2"/>
<path d="M298.378 155.095C297.496 155.152 296.668 155.544 296.064 156.189C295.459 156.834 295.123 157.685 295.123 158.569C295.123 159.453 295.459 160.304 296.064 160.95C296.668 161.595 297.496 161.986 298.378 162.044C298.987 162.075 299.596 161.972 300.161 161.742C300.726 161.513 301.234 161.162 301.649 160.715L302.978 162.044C302.417 162.738 301.696 163.286 300.878 163.642C300.06 163.997 299.168 164.15 298.277 164.088C296.817 164.063 295.425 163.465 294.401 162.423C293.377 161.381 292.803 159.979 292.803 158.518C292.803 157.057 293.377 155.655 294.401 154.613C295.425 153.572 296.817 152.974 298.277 152.949C299.117 152.895 299.958 153.033 300.737 153.352C301.516 153.671 302.212 154.162 302.774 154.788L301.445 156.322C300.62 155.531 299.52 155.091 298.378 155.095Z" fill="#0056A2"/>
<path d="M314.626 163.376C313.835 163.893 312.915 164.178 311.97 164.2C311.55 164.231 311.129 164.169 310.736 164.02C310.343 163.87 309.988 163.636 309.696 163.334C309.403 163.031 309.181 162.669 309.044 162.271C308.907 161.873 308.86 161.45 308.905 161.032V155.309H307.371V153.566H308.905V150.602H311.255V153.566H314.524V155.304H311.255V160.515C311.255 161.64 311.663 162.049 312.48 162.049C313.057 162.007 313.617 161.832 314.116 161.538L314.626 163.376Z" fill="#0056A2"/>
<path d="M322.493 151.112C322.493 151.395 322.41 151.672 322.252 151.908C322.095 152.143 321.871 152.326 321.61 152.435C321.348 152.543 321.061 152.571 320.783 152.516C320.505 152.461 320.25 152.325 320.05 152.124C319.85 151.924 319.714 151.669 319.658 151.392C319.603 151.114 319.632 150.826 319.74 150.565C319.848 150.303 320.032 150.08 320.267 149.922C320.502 149.765 320.779 149.681 321.062 149.681C321.254 149.668 321.446 149.695 321.625 149.763C321.805 149.83 321.968 149.935 322.104 150.07C322.24 150.206 322.345 150.369 322.412 150.549C322.479 150.729 322.507 150.921 322.493 151.112ZM322.289 154.177V164.091H319.939V154.177H322.289Z" fill="#0056A2"/>
<path d="M339.356 158.575C339.398 159.715 339.097 160.842 338.493 161.811C337.89 162.78 337.01 163.546 335.968 164.011C334.925 164.477 333.768 164.62 332.644 164.423C331.519 164.225 330.479 163.697 329.658 162.904C328.836 162.112 328.27 161.092 328.032 159.976C327.794 158.859 327.895 157.697 328.322 156.639C328.75 155.58 329.483 154.674 330.43 154.035C331.376 153.397 332.491 153.055 333.633 153.055C334.379 153.009 335.127 153.119 335.828 153.377C336.53 153.635 337.17 154.037 337.709 154.556C338.247 155.075 338.671 155.7 338.955 156.392C339.238 157.084 339.375 157.827 339.356 158.575ZM330.261 158.677C330.3 159.335 330.531 159.968 330.925 160.497C331.32 161.026 331.86 161.427 332.48 161.653C333.1 161.878 333.773 161.916 334.414 161.764C335.056 161.611 335.639 161.274 336.092 160.794C336.544 160.314 336.846 159.712 336.96 159.062C337.075 158.413 336.996 157.744 336.735 157.138C336.473 156.533 336.04 156.017 335.489 155.654C334.938 155.292 334.292 155.099 333.633 155.099C333.168 155.084 332.705 155.167 332.275 155.344C331.845 155.521 331.458 155.788 331.139 156.127C330.82 156.465 330.577 156.867 330.425 157.307C330.274 157.747 330.218 158.214 330.261 158.677Z" fill="#0056A2"/>
<path d="M355.401 157.244V164.091H353.047V157.959C353.075 157.603 353.026 157.245 352.902 156.91C352.778 156.575 352.584 156.271 352.331 156.018C352.079 155.765 351.774 155.571 351.439 155.447C351.104 155.324 350.746 155.274 350.39 155.302C349.994 155.292 349.599 155.361 349.229 155.505C348.859 155.649 348.522 155.866 348.236 156.142C347.951 156.418 347.723 156.748 347.567 157.113C347.411 157.477 347.328 157.87 347.325 158.267V164.092H344.977V153.159H347.327V155.3C347.717 154.577 348.315 153.986 349.044 153.605C349.772 153.223 350.598 153.068 351.415 153.159C351.959 153.111 352.507 153.184 353.019 153.374C353.532 153.564 353.995 153.865 354.377 154.256C354.758 154.647 355.048 155.118 355.225 155.635C355.402 156.151 355.462 156.701 355.401 157.244Z" fill="#0056A2"/>
</g>
<defs>
<clipPath id="clip0_209_3768">
<rect width="437.978" height="164.296" fill="white"/>
</clipPath>
</defs>
</svg>
